<?xml version="1.0" encoding="UTF-8" standalone="no"?>
<svg
   xmlns:dc="http://purl.org/dc/elements/1.1/"
   xmlns:cc="http://creativecommons.org/ns#"
   xmlns:rdf="http://www.w3.org/1999/02/22-rdf-syntax-ns#"
   xmlns:svg="http://www.w3.org/2000/svg"
   xmlns="http://www.w3.org/2000/svg"
   xmlns:sodipodi="http://sodipodi.sourceforge.net/DTD/sodipodi-0.dtd"
   xmlns:inkscape="http://www.inkscape.org/namespaces/inkscape"
   viewBox="0 0 34 29.049999"
   version="1.1"
   id="svg25"
   sodipodi:docname="Google_Fonts_logo_without_wordmark.svg"
   inkscape:version="1.0.2 (e86c870879, 2021-01-15)"
   width="34"
   height="29.049999">
  <metadata
     id="metadata31">
    <rdf:RDF>
      <cc:Work
         rdf:about="">
        <dc:format>image/svg+xml</dc:format>
        <dc:type
           rdf:resource="http://purl.org/dc/dcmitype/StillImage" />
        <dc:title></dc:title>
      </cc:Work>
    </rdf:RDF>
  </metadata>
  <defs
     id="defs29" />
  <sodipodi:namedview
     pagecolor="#ffffff"
     bordercolor="#666666"
     borderopacity="1"
     objecttolerance="10"
     gridtolerance="10"
     guidetolerance="10"
     inkscape:pageopacity="0"
     inkscape:pageshadow="2"
     inkscape:window-width="1920"
     inkscape:window-height="1012"
     id="namedview27"
     showgrid="false"
     inkscape:zoom="6.59"
     inkscape:cx="100.15175"
     inkscape:cy="14.525"
     inkscape:window-x="0"
     inkscape:window-y="0"
     inkscape:window-maximized="1"
     inkscape:current-layer="svg25"
     inkscape:document-rotation="0" />
  <g
     id="g1"
     transform="matrix(1.1172997,0,0,1.1172997,-1.6759496,-6.7037983)">
    <path
       fill="#fbbc04"
       d="M 1.5,29 C 1.5,29 16,6 16,6 c 0,0 9,0 9,0 0,0 0,3.1999998 0,3.1999998 C 25,9.1999998 12.5,29 12.5,29"
       id="path58" />
    <path
       fill="#1a73e8"
       d="m 25,29 c 0,0 -9,0 -9,0 0,0 0,-23 0,-23 0,0 9,0 9,0 0,0 0,23 0,23 z"
       id="path64" />
    <path
       fill="#34a853"
       d="m 31.5,22.5 c 0,3.59 -2.91,6.5 -6.5,6.5 0,0 0,-13 0,-13 3.59,0 6.5,2.91 6.5,6.5 z"
       id="path70" />
    <path
       fill="#0d652d"
       d="m 25,29 c -3.59,0 -6.5,-2.91 -6.5,-6.5 0,-3.59 2.91,-6.5 6.5,-6.5 0,0 0,13 0,13 z"
       id="path76" />
    <path
       fill="#1a73e8"
       d="m 30,11 c 0,2.761 -2.238,5 -5,5 0,0 0,-10 0,-10 2.762,0 5,2.2390001 5,5 z"
       id="path82" />
    <path
       fill="#174ea6"
       d="m 25,16 c -2.762,0 -5,-2.239 -5,-5 0,-2.7609999 2.238,-5 5,-5 0,0 0,10 0,10 z"
       id="path88" />
    <path
       fill="#ea4335"
       d="M 2,10.5 C 2,8.0150001 4.0150001,6 6.5,6 8.9849999,6 11,8.0150001 11,10.5 11,12.985 8.9849999,15 6.5,15 4.0150001,15 2,12.985 2,10.5 Z"
       id="path94" />
  </g>
</svg>
